<?xml version="1.0" encoding="UTF-8"?> <svg xmlns="http://www.w3.org/2000/svg" width="236" height="235" viewBox="0 0 236 235" fill="none"><path d="M114.648 27V11.7273H116.915V14.0341H117.074C117.352 13.2784 117.856 12.6652 118.585 12.1946C119.314 11.724 120.136 11.4886 121.051 11.4886C121.223 11.4886 121.439 11.4919 121.697 11.4986C121.956 11.5052 122.152 11.5152 122.284 11.5284V13.9148C122.205 13.8949 122.022 13.8651 121.737 13.8253C121.459 13.7789 121.164 13.7557 120.852 13.7557C120.11 13.7557 119.447 13.9115 118.864 14.223C118.287 14.5279 117.83 14.9522 117.491 15.4957C117.16 16.0327 116.994 16.6458 116.994 17.3352V27H114.648Z" fill="#1D1D1D"></path><path d="M137.329 29.4259C135.892 29.1095 134.722 28.5194 133.819 27.6556C132.924 26.7867 132.322 25.7173 132.011 24.4475C131.707 23.1726 131.724 21.7712 132.06 20.2434C132.397 18.7156 132.971 17.4303 133.785 16.3876C134.606 15.3398 135.59 14.5994 136.737 14.1664C137.893 13.7284 139.144 13.6576 140.49 13.954C141.267 14.125 142.006 14.4233 142.706 14.849C143.407 15.2747 144.003 15.8472 144.497 16.5667C144.991 17.2796 145.318 18.1525 145.478 19.1854C145.637 20.2183 145.564 21.4307 145.258 22.8225L145.044 23.7936L133.546 21.2628L133.982 19.2818L143.149 21.2996C143.335 20.458 143.332 19.67 143.14 18.9356C142.955 18.2026 142.598 17.5774 142.067 17.0601C141.542 16.5442 140.866 16.195 140.037 16.0126C139.124 15.8117 138.285 15.8644 137.518 16.1708C136.759 16.4722 136.123 16.943 135.609 17.5832C135.094 18.2234 134.747 18.9546 134.566 19.7768L134.275 21.0974C134.027 22.2239 134.011 23.2215 134.227 24.0903C134.451 24.9541 134.868 25.6669 135.477 26.2286C136.088 26.7839 136.856 27.1634 137.782 27.3672C138.384 27.4997 138.946 27.5353 139.469 27.4738C139.999 27.4073 140.481 27.2417 140.912 26.977C141.345 26.7058 141.716 26.3326 142.024 25.8574L144.101 26.9663C143.703 27.6659 143.166 28.24 142.49 28.6886C141.816 29.1307 141.039 29.4213 140.16 29.5604C139.283 29.693 138.339 29.6482 137.329 29.4259Z" fill="#1D1D1D"></path><path d="M152.628 40.5162C151.599 40.0403 150.776 39.4988 150.158 38.8917C149.538 38.2907 149.08 37.6625 148.784 37.0071C148.492 36.3605 148.312 35.7298 148.246 35.1149L150.494 34.7086C150.57 35.0503 150.68 35.4518 150.824 35.9131C150.966 36.3804 151.237 36.8526 151.637 37.3298C152.04 37.8159 152.66 38.2523 153.496 38.6392C154.615 39.1569 155.664 39.3134 156.642 39.1088C157.621 38.9041 158.377 38.2242 158.912 37.0691L160.214 34.2536L160.034 34.1701C159.76 34.3504 159.393 34.5602 158.932 34.7996C158.479 35.0358 157.918 35.1744 157.249 35.2155C156.589 35.2533 155.808 35.0635 154.905 34.646C153.786 34.1282 152.904 33.3987 152.259 32.4574C151.619 31.5188 151.275 30.4245 151.225 29.1744C151.181 27.9271 151.493 26.5815 152.161 25.1376C152.818 23.7178 153.64 22.597 154.626 21.7752C155.615 20.9474 156.689 20.4507 157.846 20.2851C159.007 20.1135 160.17 20.2976 161.338 20.8376C162.24 21.2551 162.886 21.7367 163.277 22.2825C163.676 22.825 163.929 23.3511 164.036 23.861C164.152 24.3676 164.233 24.7774 164.278 25.0904L164.495 25.1906L165.513 22.9887L167.571 23.9406L160.974 38.1988C160.423 39.39 159.704 40.2334 158.818 40.7289C157.935 41.2332 156.958 41.4496 155.888 41.3783C154.821 41.3157 153.735 41.0284 152.628 40.5162ZM156.079 32.8664C156.933 33.2617 157.746 33.4001 158.516 33.2819C159.287 33.1636 159.995 32.8084 160.642 32.2164C161.288 31.6244 161.848 30.817 162.321 29.7943C162.783 28.7956 163.04 27.8447 163.093 26.9414C163.146 26.0382 162.978 25.2337 162.588 24.5277C162.199 23.8218 161.571 23.2684 160.705 22.8676C159.803 22.4501 158.945 22.3308 158.132 22.5097C157.325 22.6914 156.593 23.0977 155.935 23.7286C155.284 24.3622 154.742 25.1483 154.308 26.0869C153.862 27.0494 153.619 27.9703 153.577 28.8494C153.544 29.7254 153.728 30.5117 154.129 31.2083C154.539 31.9018 155.189 32.4545 156.079 32.8664Z" fill="#1D1D1D"></path><path d="M178.85 42.3611L184.314 35.1737L186.182 36.5938L176.939 48.7523L175.071 47.3322L176.636 45.2741L176.509 45.1778C175.755 45.5786 174.912 45.7667 173.982 45.7421C173.055 45.7123 172.133 45.3483 171.215 44.6503C170.455 44.0727 169.905 43.3929 169.567 42.6112C169.233 41.8242 169.154 40.9645 169.329 40.0323C169.509 39.0948 169.992 38.1089 170.778 37.0746L176.651 29.3489L178.519 30.769L172.743 38.3681C172.069 39.2546 171.779 40.1503 171.874 41.0551C171.974 41.9639 172.412 42.7132 173.188 43.3029C173.652 43.6559 174.215 43.8962 174.876 44.0238C175.542 44.1554 176.225 44.1001 176.925 43.8581C177.631 43.62 178.272 43.121 178.85 42.3611Z" fill="#1D1D1D"></path><path d="M202.759 46.3099L187.238 59.4931L185.719 57.7046L201.24 44.5214L202.759 46.3099Z" fill="#1D1D1D"></path><path d="M196.564 73.8111C196.11 72.9561 195.86 72.0947 195.813 71.227C195.771 70.3562 195.949 69.5528 196.347 68.8168C196.75 68.0777 197.391 67.4753 198.27 67.0095C199.043 66.5997 199.75 66.4197 200.392 66.4696C201.039 66.5165 201.636 66.7217 202.181 67.0853C202.727 67.4489 203.23 67.9024 203.69 68.4459C204.16 68.9922 204.602 69.557 205.016 70.1401C205.556 70.9042 205.988 71.527 206.311 72.0086C206.643 72.4929 206.938 72.8165 207.197 72.9793C207.459 73.1481 207.757 73.1439 208.091 72.9669L208.161 72.9297C209.028 72.4701 209.575 71.8759 209.804 71.1469C210.036 70.4237 209.899 69.5849 209.393 68.6302C208.868 67.6405 208.24 66.9793 207.508 66.6469C206.777 66.3144 206.105 66.1644 205.492 66.1968L205.151 63.8564C206.157 63.7731 207.044 63.9032 207.811 64.2466C208.588 64.5929 209.251 65.0663 209.802 65.667C210.362 66.2704 210.823 66.9118 211.183 67.5912C211.413 68.0246 211.624 68.5503 211.816 69.1685C212.018 69.7893 212.1 70.4472 212.064 71.1419C212.03 71.8425 211.787 72.5378 211.335 73.2276C210.883 73.9175 210.121 74.5465 209.049 75.1147L200.159 79.8281L199.06 77.7548L200.887 76.7861L200.831 76.6806C200.464 76.6953 200.026 76.6272 199.518 76.4762C199.011 76.3252 198.495 76.0395 197.972 75.619C197.449 75.1986 196.98 74.5959 196.564 73.8111ZM198.594 73.14C199.029 73.9599 199.556 74.5656 200.176 74.9571C200.799 75.3544 201.442 75.5615 202.104 75.5783C202.768 75.601 203.382 75.4633 203.944 75.1653L205.842 74.1592C205.69 74.1273 205.491 73.9852 205.244 73.7331C205.007 73.4838 204.754 73.1829 204.484 72.8305C204.224 72.4809 203.974 72.1369 203.735 71.7987C203.504 71.4632 203.316 71.1919 203.168 70.9849C202.812 70.4833 202.431 70.0402 202.025 69.6555C201.627 69.2735 201.197 69.0214 200.734 68.899C200.281 68.7793 199.791 68.8592 199.263 69.1386C198.543 69.5206 198.14 70.0758 198.053 70.8044C197.976 71.5357 198.156 72.3142 198.594 73.14Z" fill="#1D1D1D"></path><path d="M220.316 92.0064L218.399 92.5384L216.282 84.9122L218.198 84.3801L220.316 92.0064ZM222.341 85.624L222.969 87.885L208.943 91.7794C208.304 91.9567 207.851 92.1823 207.583 92.4562C207.323 92.7348 207.18 93.036 207.153 93.3599C207.134 93.6885 207.17 94.0189 207.263 94.351C207.332 94.6001 207.401 94.8009 207.471 94.9535C207.547 95.1043 207.608 95.225 207.654 95.3155L205.751 96.3393C205.651 96.202 205.534 96.0039 205.4 95.7453C205.26 95.4883 205.131 95.1491 205.014 94.7276C204.837 94.0888 204.8 93.4248 204.905 92.7353C205.011 92.0523 205.289 91.4316 205.74 90.8731C206.192 90.3211 206.846 89.9262 207.702 89.6886L222.341 85.624Z" fill="#1D1D1D"></path><path d="M207.795 110.777L223.045 109.95L223.172 112.294L207.922 113.12L207.795 110.777ZM225.651 111.004C225.627 110.547 225.761 110.145 226.054 109.797C226.348 109.456 226.713 109.274 227.15 109.25C227.586 109.226 227.969 109.368 228.298 109.676C228.627 109.99 228.804 110.375 228.829 110.832C228.853 111.288 228.719 111.687 228.425 112.029C228.132 112.376 227.767 112.562 227.33 112.586C226.894 112.61 226.511 112.464 226.182 112.15C225.853 111.843 225.676 111.461 225.651 111.004Z" fill="#1D1D1D"></path><path d="M206.524 131.363C206.747 130.002 207.267 128.862 208.083 127.941C208.898 127.027 209.935 126.377 211.193 125.992C212.451 125.614 213.858 125.553 215.415 125.808C216.985 126.065 218.309 126.574 219.387 127.336C220.463 128.103 221.241 129.05 221.722 130.177C222.201 131.31 222.329 132.557 222.106 133.918C221.883 135.278 221.364 136.416 220.549 137.33C219.733 138.251 218.693 138.9 217.429 139.277C216.164 139.661 214.746 139.724 213.176 139.466C211.619 139.211 210.306 138.7 209.236 137.934C208.165 137.174 207.389 136.227 206.91 135.094C206.43 133.967 206.301 132.724 206.524 131.363ZM208.604 131.704C208.435 132.738 208.561 133.632 208.981 134.386C209.401 135.14 210.017 135.748 210.828 136.21C211.639 136.672 212.548 136.986 213.556 137.151C214.563 137.316 215.528 137.31 216.451 137.132C217.373 136.954 218.157 136.575 218.803 135.996C219.449 135.417 219.856 134.61 220.026 133.577C220.195 132.543 220.067 131.649 219.64 130.894C219.213 130.138 218.59 129.529 217.773 129.066C216.955 128.603 216.043 128.289 215.036 128.124C214.028 127.958 213.066 127.965 212.15 128.144C211.234 128.323 210.457 128.703 209.818 129.283C209.178 129.864 208.774 130.671 208.604 131.704Z" fill="#1D1D1D"></path><path d="M211.626 149.992L203.091 146.591L203.959 144.411L218.147 150.064L217.308 152.17L215.091 151.287L215.018 151.472C215.606 152.091 215.983 152.827 216.151 153.679C216.324 154.533 216.197 155.495 215.77 156.567C215.388 157.528 214.856 158.29 214.174 158.853C213.499 159.419 212.685 159.744 211.731 159.828C210.783 159.914 209.706 159.716 208.499 159.236L199.484 155.643L200.352 153.464L209.22 156.997C210.334 157.441 211.318 157.497 212.171 157.166C213.029 156.838 213.66 156.168 214.062 155.159C214.34 154.463 214.437 153.781 214.353 153.112C214.267 152.45 213.998 151.847 213.544 151.302C213.09 150.757 212.451 150.321 211.626 149.992Z" fill="#1D1D1D"></path><path d="M192.44 167.3C192.715 166.894 193.097 166.644 193.585 166.551C194.073 166.457 194.52 166.548 194.926 166.823C195.332 167.098 195.582 167.48 195.675 167.968C195.769 168.456 195.678 168.903 195.403 169.309C195.128 169.715 194.746 169.965 194.258 170.058C193.77 170.152 193.323 170.061 192.917 169.786C192.648 169.603 192.448 169.367 192.316 169.078C192.18 168.794 192.12 168.493 192.135 168.175C192.152 167.866 192.254 167.574 192.44 167.3Z" fill="#1D1D1D"></path><path d="M176.235 177.478C177.058 176.698 177.865 176.134 178.658 175.785C179.446 175.431 180.199 175.238 180.917 175.206C181.626 175.174 182.278 175.241 182.874 175.407L182.42 177.645C182.074 177.589 181.66 177.543 181.178 177.506C180.692 177.465 180.153 177.542 179.561 177.737C178.961 177.931 178.326 178.346 177.657 178.979C176.762 179.827 176.228 180.744 176.056 181.728C175.884 182.713 176.236 183.667 177.111 184.591L179.244 186.844L179.389 186.707C179.322 186.386 179.263 185.967 179.212 185.45C179.16 184.942 179.239 184.37 179.448 183.733C179.657 183.106 180.123 182.45 180.845 181.767C181.74 180.919 182.744 180.369 183.858 180.118C184.966 179.871 186.11 179.956 187.29 180.373C188.465 180.794 189.6 181.582 190.694 182.737C191.769 183.872 192.507 185.051 192.905 186.271C193.308 187.496 193.372 188.677 193.097 189.814C192.827 190.956 192.225 191.969 191.292 192.853C190.57 193.537 189.883 193.959 189.232 194.119C188.58 194.289 187.998 194.33 187.484 194.241C186.971 194.161 186.56 194.085 186.253 194.011L186.079 194.175L187.748 195.936L186.102 197.495L175.298 186.09C174.395 185.137 173.878 184.157 173.746 183.15C173.604 182.142 173.765 181.155 174.227 180.188C174.68 179.22 175.349 178.317 176.235 177.478ZM182.064 183.516C181.38 184.163 180.951 184.866 180.776 185.626C180.6 186.386 180.668 187.175 180.979 187.995C181.289 188.814 181.832 189.633 182.607 190.451C183.364 191.25 184.152 191.841 184.972 192.225C185.791 192.608 186.601 192.749 187.401 192.649C188.201 192.549 188.947 192.17 189.64 191.514C190.362 190.83 190.79 190.078 190.925 189.256C191.055 188.439 190.948 187.608 190.606 186.764C190.258 185.925 189.729 185.13 189.017 184.379C188.288 183.609 187.523 183.042 186.721 182.678C185.92 182.324 185.121 182.204 184.326 182.318C183.53 182.442 182.776 182.841 182.064 183.516Z" fill="#1D1D1D"></path><path d="M164.362 193.768C165.544 193.058 166.75 192.715 167.98 192.741C169.204 192.77 170.37 193.14 171.478 193.85C172.581 194.564 173.539 195.596 174.352 196.948C175.172 198.311 175.641 199.65 175.759 200.964C175.871 202.281 175.653 203.488 175.105 204.583C174.552 205.682 173.684 206.587 172.503 207.298C171.321 208.009 170.119 208.35 168.894 208.32C167.664 208.295 166.496 207.922 165.39 207.203C164.279 206.487 163.313 205.447 162.493 204.084C161.679 202.732 161.218 201.4 161.11 200.089C160.996 198.78 161.215 197.577 161.769 196.478C162.316 195.382 163.181 194.479 164.362 193.768ZM165.449 195.575C164.552 196.115 163.952 196.789 163.649 197.598C163.347 198.406 163.282 199.269 163.455 200.186C163.627 201.104 163.977 201.999 164.503 202.874C165.03 203.749 165.659 204.48 166.392 205.068C167.125 205.656 167.921 206.009 168.781 206.126C169.64 206.243 170.519 206.032 171.416 205.492C172.314 204.952 172.912 204.275 173.211 203.46C173.51 202.646 173.571 201.777 173.395 200.854C173.219 199.932 172.868 199.033 172.342 198.158C171.815 197.283 171.187 196.555 170.458 195.973C169.729 195.39 168.936 195.043 168.08 194.932C167.223 194.82 166.347 195.035 165.449 195.575Z" fill="#1D1D1D"></path><path d="M145.325 218.881L145.8 202.604L148.062 201.842L158.29 214.512L155.878 215.325L147.997 205.138L147.846 205.189L147.737 218.068L145.325 218.881Z" fill="#1D1D1D"></path><path d="M129.643 215.226L129.958 219.593L133.381 216.86L134.511 218.417L130.855 220.855L134.949 222.45L134.181 224.214L130.25 222.281L130.881 226.613L128.983 226.82L128.669 222.453L125.245 225.186L124.116 223.629L127.771 221.191L123.677 219.596L124.445 217.832L128.376 219.765L127.745 215.432L129.643 215.226Z" fill="#1D1D1D"></path><path d="M101.554 217.664L103.714 217.299C103.808 217.663 103.965 218.023 104.187 218.381C104.4 218.744 104.713 219.058 105.124 219.323C105.536 219.588 106.081 219.757 106.759 219.831C107.689 219.932 108.486 219.802 109.152 219.441C109.811 219.086 110.176 218.582 110.247 217.93C110.31 217.35 110.149 216.869 109.763 216.487C109.378 216.105 108.75 215.753 107.878 215.431L105.684 214.633C104.363 214.156 103.406 213.542 102.814 212.79C102.222 212.046 101.983 211.143 102.099 210.082C102.193 209.212 102.528 208.462 103.103 207.831C103.672 207.199 104.423 206.734 105.356 206.436C106.288 206.137 107.344 206.052 108.524 206.18C110.073 206.348 111.318 206.824 112.26 207.607C113.201 208.389 113.737 209.441 113.867 210.762L111.592 211.075C111.47 210.234 111.138 209.578 110.596 209.106C110.048 208.633 109.295 208.344 108.34 208.24C107.253 208.122 106.364 208.259 105.675 208.651C104.978 209.048 104.594 209.573 104.523 210.226C104.466 210.753 104.602 211.215 104.933 211.611C105.262 212.013 105.8 212.345 106.545 212.606L109.011 213.474C110.366 213.955 111.331 214.577 111.909 215.34C112.478 216.109 112.706 217.017 112.592 218.065C112.499 218.921 112.176 219.653 111.624 220.26C111.064 220.866 110.346 221.311 109.468 221.595C108.584 221.879 107.608 221.963 106.54 221.847C105.038 221.684 103.894 221.226 103.109 220.474C102.317 219.721 101.799 218.784 101.554 217.664Z" fill="#1D1D1D"></path><path d="M89.5044 202.034C90.8111 202.475 91.8527 203.172 92.6294 204.126C93.3998 205.078 93.8731 206.206 94.0491 207.511C94.2189 208.813 94.0519 210.212 93.5481 211.707C93.0402 213.215 92.3235 214.439 91.3981 215.379C90.4664 216.317 89.4058 216.932 88.2163 217.224C87.0206 217.513 85.7694 217.438 84.4627 216.998C83.1561 216.557 82.1176 215.861 81.3472 214.909C80.5705 213.955 80.0983 212.824 79.9307 211.515C79.7567 210.204 79.9238 208.795 80.4318 207.288C80.9355 205.792 81.6521 204.579 82.5817 203.647C83.505 202.713 84.5645 202.101 85.7603 201.812C86.9498 201.52 88.1978 201.594 89.5044 202.034ZM88.8314 204.032C87.8388 203.698 86.9365 203.677 86.1243 203.97C85.3121 204.263 84.6124 204.772 84.0252 205.497C83.438 206.223 82.9815 207.069 82.6555 208.037C82.3296 209.004 82.1797 209.957 82.206 210.897C82.2323 211.836 82.4791 212.671 82.9463 213.402C83.4134 214.133 84.1433 214.666 85.1358 215C86.1283 215.334 87.0318 215.352 87.8461 215.053C88.6604 214.754 89.3622 214.238 89.9515 213.506C90.5408 212.775 90.9984 211.925 91.3244 210.958C91.6503 209.99 91.7991 209.04 91.7707 208.107C91.7423 207.174 91.4934 206.345 91.0241 205.621C90.5548 204.896 89.8239 204.366 88.8314 204.032Z" fill="#1D1D1D"></path><path d="M76.9896 197.36L76.0669 198.893L62.8961 203.966L62.8141 204.102L70.0049 208.428L68.8771 210.303L59.0963 204.418L60.06 202.816L72.9853 197.689L73.0673 197.553L65.6039 193.062L66.7316 191.188L76.9896 197.36Z" fill="#1D1D1D"></path><path d="M57.1137 182.855C58.0377 183.73 58.6323 184.736 58.8976 185.873C59.1583 187.015 59.0826 188.203 58.6706 189.438C58.2541 190.678 57.4896 191.885 56.3773 193.059C55.2742 194.224 54.1171 195.045 52.9063 195.524C51.6954 196.002 50.5127 196.137 49.3583 195.929C48.2039 195.721 47.1599 195.175 46.2262 194.291C45.5044 193.607 45.0481 192.947 44.8573 192.309C44.6572 191.672 44.59 191.097 44.6558 190.585C44.7123 190.072 44.7691 189.66 44.8263 189.349L44.682 189.212L39.5125 194.67L37.8089 193.056L51.8129 178.272L53.4588 179.831L51.8451 181.535L52.0472 181.726C52.3638 181.643 52.7834 181.556 53.3062 181.467C53.8244 181.383 54.4116 181.423 55.0678 181.588C55.7195 181.758 56.4015 182.18 57.1137 182.855ZM55.4331 184.166C54.7497 183.519 54.0036 183.15 53.1946 183.06C52.3811 182.974 51.5507 183.132 50.7036 183.535C49.8518 183.943 49.0294 184.565 48.2362 185.402C47.4521 186.23 46.8863 187.068 46.5389 187.917C46.1869 188.771 46.0826 189.594 46.226 190.387C46.3648 191.185 46.7808 191.913 47.4738 192.569C48.1956 193.253 48.9727 193.637 49.8049 193.723C50.6278 193.808 51.4582 193.65 52.296 193.247C53.1244 192.845 53.9079 192.254 54.6464 191.474C55.394 190.685 55.9529 189.854 56.3231 188.981C56.684 188.109 56.8063 187.257 56.69 186.425C56.5643 185.594 56.1453 184.841 55.4331 184.166Z" fill="#1D1D1D"></path><path d="M43.7194 167.535C43.9946 167.941 44.0855 168.388 43.9918 168.876C43.8982 169.364 43.6484 169.746 43.2424 170.021C42.8364 170.296 42.3894 170.387 41.9015 170.293C41.4135 170.2 41.0319 169.95 40.7566 169.544C40.4813 169.138 40.3905 168.691 40.4841 168.203C40.5778 167.715 40.8276 167.333 41.2336 167.058C41.5024 166.876 41.7958 166.777 42.1138 166.762C42.428 166.741 42.73 166.796 43.0197 166.928C43.3001 167.059 43.5334 167.261 43.7194 167.535Z" fill="#1D1D1D"></path><path d="M35.0894 151.203C35.5604 152.385 35.6777 153.548 35.441 154.691C35.1982 155.837 34.6306 156.884 33.7381 157.831C32.8394 158.782 31.6389 159.556 30.1363 160.155C28.6461 160.749 27.2511 161.008 25.9513 160.934C24.6515 160.86 23.5214 160.486 22.561 159.812C21.6005 159.139 20.8823 158.205 20.4063 157.01C20.0383 156.087 19.9015 155.296 19.9959 154.637C20.0817 153.975 20.2622 153.425 20.5373 152.987C20.8038 152.546 21.0283 152.196 21.2108 151.937L21.1372 151.753L14.154 154.535L13.2855 152.355L32.2028 144.818L33.0419 146.924L30.862 147.792L30.965 148.051C31.2875 148.108 31.7046 148.206 32.2165 148.344C32.7222 148.485 33.2382 148.769 33.7645 149.194C34.2846 149.622 34.7262 150.291 35.0894 151.203ZM33.0133 151.687C32.6649 150.813 32.1427 150.165 31.4465 149.743C30.7442 149.323 29.9241 149.119 28.9861 149.128C28.042 149.141 27.0341 149.36 25.9626 149.787C24.9035 150.209 24.038 150.732 23.3663 151.357C22.6885 151.984 22.2481 152.687 22.0452 153.467C21.8361 154.25 21.9082 155.085 22.2615 155.971C22.6295 156.895 23.1733 157.57 23.8928 157.997C24.6037 158.42 25.4239 158.625 26.3533 158.612C27.274 158.595 28.2332 158.387 29.2308 157.99C30.2407 157.587 31.0969 157.068 31.7994 156.431C32.4933 155.791 32.962 155.069 33.2056 154.265C33.4406 153.458 33.3765 152.599 33.0133 151.687Z" fill="#1D1D1D"></path><path d="M22.4941 129.341L13.5846 130.802L13.205 128.486L28.2765 126.015L28.6562 128.331L26.105 128.749L26.1307 128.906C26.954 129.134 27.695 129.577 28.3536 130.234C29.0057 130.893 29.4251 131.792 29.6117 132.93C29.7661 133.872 29.6973 134.743 29.4053 135.543C29.1068 136.344 28.5732 137.023 27.8045 137.579C27.0293 138.136 26.0006 138.52 24.7185 138.73L15.1418 140.3L14.7622 137.984L24.1819 136.44C25.2808 136.26 26.107 135.809 26.6603 135.086C27.2126 134.358 27.4099 133.513 27.2523 132.551C27.1579 131.975 26.9147 131.414 26.5228 130.867C26.1297 130.313 25.5958 129.884 24.921 129.578C24.245 129.266 23.4361 129.187 22.4941 129.341Z" fill="#1D1D1D"></path><path d="M27.5716 122.465L12.3212 121.638L12.444 119.374L14.8268 119.503L14.8376 119.305C14.0407 118.943 13.4364 118.396 13.0247 117.663C12.6063 116.93 12.4241 116.067 12.4779 115.074C12.5325 114.068 12.8062 113.243 13.2992 112.599C13.7859 111.949 14.4466 111.457 15.2812 111.123L15.2898 110.965C14.5233 110.531 13.9295 109.912 13.5085 109.106C13.0809 108.299 12.8967 107.35 12.956 106.258C13.0299 104.894 13.5173 103.802 14.4182 102.981C15.3124 102.16 16.6564 101.798 18.4502 101.895L28.6568 102.449L28.5297 104.792L18.3231 104.238C17.1979 104.177 16.377 104.441 15.8604 105.031C15.3439 105.62 15.063 106.332 15.0178 107.166C14.9596 108.238 15.2389 109.086 15.8556 109.711C16.4658 110.335 17.2639 110.673 18.2502 110.727L28.1788 111.265L28.0496 113.648L17.6047 113.082C16.7376 113.035 16.024 113.278 15.464 113.812C14.8973 114.346 14.59 115.056 14.5419 115.943C14.5089 116.552 14.6402 117.13 14.9358 117.677C15.2318 118.217 15.6589 118.665 16.2172 119.021C16.7692 119.37 17.4192 119.564 18.1671 119.605L27.6986 120.121L27.5716 122.465Z" fill="#1D1D1D"></path><path d="M31.2621 94.3267C31.0032 95.2592 30.5926 96.0567 30.0303 96.7193C29.4615 97.38 28.7798 97.8409 27.985 98.1017C27.1838 98.3609 26.3042 98.3574 25.3461 98.0914C24.503 97.8573 23.8657 97.5015 23.4342 97.024C22.9962 96.5446 22.7043 95.9855 22.5584 95.3464C22.4125 94.7074 22.3592 94.0322 22.3985 93.3207C22.4332 92.6011 22.5007 91.8872 22.601 91.1789C22.7343 90.2528 22.8494 89.5039 22.9462 88.9323C23.0384 88.3525 23.0465 87.9144 22.9705 87.6182C22.8963 87.3155 22.6772 87.1136 22.3131 87.0125L22.2365 86.9913C21.2912 86.7288 20.4848 86.7835 19.8174 87.1555C19.1518 87.521 18.6745 88.2244 18.3854 89.2655C18.0857 90.3449 18.0871 91.2568 18.3895 92.0012C18.6919 92.7456 19.0767 93.3169 19.5441 93.7149L18.1818 95.6482C17.394 95.0167 16.8397 94.3124 16.5188 93.5354C16.1933 92.7502 16.0371 91.9501 16.0501 91.135C16.0585 90.3118 16.1656 89.5297 16.3713 88.7888C16.5026 88.3162 16.7108 87.7892 16.996 87.208C17.2766 86.6186 17.6691 86.0843 18.1737 85.6052C18.6799 85.1198 19.3344 84.7821 20.137 84.5921C20.9396 84.4022 21.9253 84.4695 23.0942 84.794L32.7899 87.486L32.1621 89.7471L30.1693 89.1938L30.1374 89.3088C30.4142 89.5507 30.685 89.9011 30.9497 90.3599C31.2145 90.8186 31.3922 91.3805 31.4827 92.0454C31.5733 92.7104 31.4997 93.4708 31.2621 94.3267ZM29.3268 93.4178C29.575 92.5236 29.6086 91.7212 29.4276 91.0105C29.2483 90.2934 28.9243 89.7012 28.4555 89.2339C27.9885 88.7603 27.4484 88.4383 26.8352 88.2681L24.7658 87.6935C24.8542 87.8213 24.901 88.0613 24.9064 88.4136C24.9071 88.7578 24.8841 89.1504 24.8373 89.5915C24.7859 90.0244 24.7308 90.446 24.672 90.8561C24.6085 91.2582 24.559 91.585 24.5236 91.8366C24.4371 92.4455 24.4091 93.0293 24.4397 93.5882C24.4657 94.1389 24.6045 94.6177 24.8561 95.0247C25.1031 95.4235 25.514 95.7027 26.0889 95.8623C26.8745 96.0804 27.5492 95.9547 28.113 95.4852C28.6721 95.0075 29.0767 94.3184 29.3268 93.4178Z" fill="#1D1D1D"></path><path d="M38.5579 75.0433C38.3282 75.4766 37.9758 75.7663 37.5008 75.9121C37.0259 76.0579 36.5717 76.016 36.1383 75.7862C35.7049 75.5564 35.4153 75.2041 35.2695 74.7291C35.1236 74.2541 35.1656 73.8 35.3954 73.3666C35.6251 72.9332 35.9775 72.6436 36.4525 72.4977C36.9274 72.3519 37.3816 72.3939 37.815 72.6236C38.102 72.7758 38.3267 72.9887 38.4892 73.2624C38.6548 73.5303 38.7472 73.8231 38.7663 74.1408C38.7826 74.4496 38.7132 74.7504 38.5579 75.0433Z" fill="#1D1D1D"></path><path d="M53.568 63.173C52.8341 64.0369 52.0922 64.6852 51.342 65.1178C50.5969 65.5547 49.8691 65.8279 49.1585 65.9375C48.4572 66.0463 47.8015 66.0503 47.1914 65.9495L47.4012 63.6751C47.7507 63.6937 48.167 63.6951 48.6501 63.6792C49.1383 63.6677 49.6658 63.533 50.2326 63.2753C50.8088 63.0167 51.3952 62.5363 51.9917 61.8341C52.7899 60.8943 53.2213 59.9257 53.2858 58.9282C53.3504 57.9306 52.8976 57.0199 51.9276 56.1959L49.5632 54.1876L49.4344 54.3391C49.5351 54.6507 49.639 55.0608 49.7462 55.5694C49.8527 56.0686 49.8363 56.6461 49.6968 57.3017C49.5566 57.948 49.1647 58.65 48.521 59.4079C47.7228 60.3476 46.7838 61.0025 45.7041 61.3726C44.6287 61.7376 43.4821 61.7769 42.2642 61.4904C41.0507 61.1989 39.8377 60.5382 38.6251 59.5082C37.4328 58.4955 36.5727 57.4039 36.0447 56.2336C35.5117 55.059 35.3203 53.8918 35.4704 52.7321C35.6154 51.5681 36.1042 50.4961 36.9368 49.5159C37.5805 48.7581 38.2174 48.2642 38.8477 48.0342C39.4772 47.7948 40.0519 47.6916 40.5719 47.7245C41.0911 47.748 41.5076 47.78 41.8212 47.8202L41.9757 47.6384L40.1266 46.0677L41.5943 44.3399L53.568 54.5105C54.5684 55.3601 55.1887 56.2784 55.4289 57.2652C55.6785 58.2513 55.6258 59.2502 55.2708 60.262C54.9252 61.273 54.3576 62.2434 53.568 63.173ZM47.1204 57.8007C47.7298 57.0833 48.0805 56.3375 48.1727 55.5635C48.2648 54.7894 48.1122 54.0118 47.7147 53.2306C47.3172 52.4494 46.689 51.694 45.8301 50.9645C44.9914 50.2521 44.144 49.7497 43.2878 49.4573C42.4316 49.1649 41.6113 49.1118 40.827 49.2979C40.0427 49.4841 39.3416 49.9409 38.7236 50.6684C38.0799 51.4262 37.7355 52.2208 37.6903 53.0522C37.6494 53.8785 37.845 54.6926 38.2771 55.4945C38.7135 56.2914 39.3258 57.0246 40.114 57.694C40.9223 58.3806 41.7445 58.8616 42.5805 59.1368C43.4157 59.4027 44.2226 59.4357 45.0011 59.236C45.7788 59.0268 46.4852 58.5484 47.1204 57.8007Z" fill="#1D1D1D"></path><path d="M63.6093 45.6943C62.5116 46.5287 61.35 46.9996 60.1243 47.107C58.9039 47.2104 57.7045 46.9689 56.5261 46.3826C55.3529 45.7923 54.289 44.8691 53.3342 43.6132C52.3714 42.3467 51.7606 41.0666 51.5016 39.773C51.2479 38.4754 51.3341 37.2524 51.7602 36.1042C52.1916 34.9519 52.9561 33.9586 54.0537 33.1242C55.1514 32.2898 56.3104 31.8209 57.5307 31.7175C58.7564 31.6102 59.9578 31.8543 61.135 32.4499C62.3175 33.0415 63.3901 33.9705 64.3529 35.237C65.3076 36.493 65.9098 37.7671 66.1595 39.0595C66.4144 40.3478 66.3262 41.5681 65.8949 42.7204C65.4688 43.8686 64.7069 44.8599 63.6093 45.6943ZM62.3336 44.0162C63.1674 43.3824 63.6909 42.6471 63.9043 41.8105C64.1176 40.9739 64.0888 40.109 63.8178 39.2159C63.5469 38.3227 63.1025 37.4698 62.4847 36.6571C61.867 35.8444 61.162 35.1855 60.3699 34.6802C59.5778 34.1749 58.7481 33.9105 57.8809 33.8869C57.0137 33.8634 56.1632 34.1685 55.3294 34.8023C54.4956 35.4362 53.974 36.174 53.7647 37.0159C53.5554 37.8578 53.5882 38.728 53.8632 39.6264C54.1382 40.5249 54.5845 41.3804 55.2023 42.1931C55.8201 43.0058 56.523 43.6621 57.3111 44.1621C58.0992 44.6621 58.9249 44.9213 59.7881 44.9395C60.6513 44.9578 61.4998 44.65 62.3336 44.0162Z" fill="#1D1D1D"></path><path d="M79.8201 18.6705L81.1073 34.9031L78.9414 35.9051L67.4029 24.4154L69.713 23.3466L78.6495 32.6219L78.7939 32.5551L77.5099 19.7393L79.8201 18.6705Z" fill="#1D1D1D"></path><path d="M95.8052 20.6085L95.0201 16.3016L91.9122 19.3885L90.6209 17.9623L93.9914 15.1434L89.7488 14.0003L90.3219 12.1637L94.4387 13.6603L93.3429 9.4218L95.2073 9.0114L95.9924 13.3183L99.1004 10.2314L100.392 11.6576L97.0211 14.4765L101.264 15.6196L100.691 17.4562L96.5738 15.9596L97.6697 20.1981L95.8052 20.6085Z" fill="#1D1D1D"></path></svg> 