<?xml version="1.0" encoding="UTF-8"?> <svg xmlns="http://www.w3.org/2000/svg" viewBox="1938.4998779296875 2438.99072265625 123 122" width="123" height="122" data-guides="{&quot;vertical&quot;:[],&quot;horizontal&quot;:[]}"><path fill="#786C94" stroke="none" fill-opacity="1" stroke-width="1.176471" stroke-opacity="1" alignment-baseline="baseline" baseline-shift="baseline" color="rgb(51, 51, 51)" font-size-adjust="none" id="tSvg13c72415c56" title="Path 1" d="M 1989.7218779296875 2479.324055989583 C 1989.7218779296875 2474.1523382118057 1989.7218779296875 2468.980620434028 1989.7218779296875 2463.8089026562493C 1990.658744596354 2463.8089026562493 1991.595611263021 2463.8089026562493 1992.5324779296875 2463.8089026562493C 1992.5324779296875 2468.1952648784722 1992.5324779296875 2472.5816271006943 1992.5324779296875 2476.967989322917C 1994.8102557074656 2476.967989322917 1997.088033485243 2476.967989322917 1999.3658112630205 2476.967989322917C 1999.3658112630205 2477.753344878472 1999.3658112630205 2478.538700434028 1999.3658112630205 2479.324055989583C 1996.1511668185763 2479.324055989583 1992.936522374132 2479.324055989583 1989.7218779296875 2479.324055989583ZM 2002.8718779296876 2479.324055989583 C 2002.8718779296876 2474.1523382118057 2002.8718779296876 2468.980620434028 2002.8718779296876 2463.8089026562493C 2006.23550015191 2463.8089026562493 2009.5991223741319 2463.8089026562493 2012.9627445963542 2463.8089026562493C 2012.9627445963542 2464.594264878472 2012.9627445963542 2465.379627100694 2012.9627445963542 2466.164989322917C 2010.5359890407985 2466.164989322917 2008.109233485243 2466.164989322917 2005.6824779296874 2466.164989322917C 2005.6824779296874 2467.569011545139 2005.6824779296874 2468.973033767361 2005.6824779296874 2470.377055989583C 2007.9349890407989 2470.377055989583 2010.1875001519097 2470.377055989583 2012.4400112630206 2470.377055989583C 2012.4400112630206 2471.1624115451386 2012.4400112630206 2471.9477671006944 2012.4400112630206 2472.73312265625C 2010.1875001519097 2472.73312265625 2007.9349890407989 2472.73312265625 2005.6824779296874 2472.73312265625C 2005.6824779296874 2474.1447448784725 2005.6824779296874 2475.5563671006944 2005.6824779296874 2476.967989322917C 2008.1294334852432 2476.967989322917 2010.5763890407986 2476.967989322917 2013.023344596354 2476.967989322917C 2013.023344596354 2477.753344878472 2013.023344596354 2478.538700434028 2013.023344596354 2479.324055989583C 2009.639522374132 2479.324055989583 2006.2557001519097 2479.324055989583 2002.8718779296876 2479.324055989583ZM 2027.290811263021 2468.7634559895832 C 2027.164544596354 2468.3543893229166 2026.9902779296874 2467.9881893229167 2026.7680779296875 2467.6649893229164C 2026.5508779296874 2467.3366559895835 2026.2882779296876 2467.0563893229164 2025.9802112630207 2466.824055989583C 2025.6771445963543 2466.5917226562497 2025.3286779296875 2466.41752265625 2024.934744596354 2466.30132265625C 2024.540811263021 2466.18012265625 2024.1114779296872 2466.1195226562504 2023.6468779296874 2466.1195226562504C 2022.813544596354 2466.1195226562504 2022.0710779296874 2466.3291226562496 2021.4195445963542 2466.74832265625C 2020.7680779296875 2467.16752265625 2020.255411263021 2467.783655989583 2019.8816779296876 2468.5967893229163C 2019.5130112630209 2469.4048559895837 2019.3286779296873 2470.38972265625 2019.3286779296873 2471.5513226562502C 2019.3286779296873 2472.7230559895834 2019.5130112630209 2473.7154559895835 2019.8816779296876 2474.5285893229166C 2020.2504112630209 2475.3417226562497 2020.7630112630209 2475.960389322917 2021.4195445963542 2476.3846559895833C 2022.076144596354 2476.8038559895836 2022.838744596354 2477.0134559895837 2023.7074779296877 2477.0134559895837C 2024.4953445963542 2477.0134559895837 2025.177144596354 2476.86192265625 2025.7528779296877 2476.55892265625C 2026.333744596354 2476.2558559895833 2026.7806779296875 2475.8265893229163 2027.093811263021 2475.2710559895836C 2027.4069445963542 2474.710389322917 2027.5635445963542 2474.053855989583 2027.5635445963542 2473.3013226562502C 2027.7756557074651 2473.334144878472 2027.9877668185761 2473.3669671006946 2028.1998779296875 2473.3997893229166C 2026.795833485243 2473.3997893229166 2025.3917890407988 2473.3997893229166 2023.987744596354 2473.3997893229166C 2023.987744596354 2472.6674782118052 2023.987744596354 2471.9351671006943 2023.987744596354 2471.2028559895834C 2026.0862334852432 2471.2028559895834 2028.184722374132 2471.2028559895834 2030.2832112630208 2471.2028559895834C 2030.2832112630208 2471.824055989583 2030.2832112630208 2472.4452559895826 2030.2832112630208 2473.066455989583C 2030.2832112630208 2474.3947893229165 2030.0004112630209 2475.54372265625 2029.4347445963542 2476.513455989583C 2028.8690779296874 2477.48312265625 2028.0912779296875 2478.230589322917 2027.101411263021 2478.7558559895833C 2026.1114779296875 2479.2760559895833 2024.9751445963543 2479.536189322917 2023.6922779296876 2479.536189322917C 2022.2630112630209 2479.536189322917 2021.0079445963543 2479.2154559895835 2019.927144596354 2478.574055989583C 2018.8514112630207 2477.9275893229164 2018.0104779296876 2477.01092265625 2017.4044112630208 2475.8240559895835C 2016.803411263021 2474.6321226562495 2016.5028779296874 2473.217989322917 2016.5028779296874 2471.581655989584C 2016.5028779296874 2470.3291226562496 2016.6796779296876 2469.210389322917 2017.0332112630208 2468.2255893229167C 2017.3918112630206 2467.24072265625 2017.8918112630208 2466.4048559895837 2018.5332112630208 2465.717989322917C 2019.1746112630208 2465.0260559895833 2019.927144596354 2464.5008559895828 2020.790811263021 2464.142255989583C 2021.6544112630206 2463.7786026562494 2022.5938112630208 2463.59678265625 2023.6089445963544 2463.59678265625C 2024.4675445963542 2463.59678265625 2025.2680779296875 2463.72304265625 2026.0104779296876 2463.9755693229167C 2026.7528779296874 2464.223055989583 2027.4120112630208 2464.5765893229163 2027.9877445963543 2465.036189322917C 2028.568544596354 2465.495789322916 2029.0458112630208 2466.0412559895835 2029.419544596354 2466.6725226562503C 2029.793344596354 2467.3038559895836 2030.0382779296876 2468.0008559895837 2030.1544112630208 2468.7634559895832C 2029.1998779296873 2468.7634559895832 2028.2453445963542 2468.7634559895832 2027.290811263021 2468.7634559895832ZM 2036.8782779296876 2463.8089026562493 C 2036.8782779296876 2468.980620434028 2036.8782779296876 2474.1523382118057 2036.8782779296876 2479.324055989583C 2035.9414112630207 2479.324055989583 2035.004544596354 2479.324055989583 2034.0676779296875 2479.324055989583C 2034.0676779296875 2474.1523382118057 2034.0676779296875 2468.980620434028 2034.0676779296875 2463.8089026562493C 2035.004544596354 2463.8089026562493 2035.9414112630207 2463.8089026562493 2036.8782779296876 2463.8089026562493ZM 2049.4205445963544 2468.074055989583 C 2049.3498779296874 2467.4124559895836 2049.0518779296876 2466.8972559895838 2048.526544596354 2466.5285893229166C 2048.0058779296874 2466.15992265625 2047.3292112630206 2465.9755893229167 2046.4960779296875 2465.9755893229167C 2045.9102112630208 2465.9755893229167 2045.4076779296872 2466.0639226562503 2044.9885445963541 2466.24072265625C 2044.5693445963539 2466.41752265625 2044.2486112630208 2466.657389322917 2044.0264112630207 2466.9603893229164C 2043.804144596354 2467.2634559895832 2043.6905445963541 2467.6093893229163 2043.6854779296875 2467.99832265625C 2043.6854779296875 2468.32152265625 2043.7587445963543 2468.6018559895833 2043.905211263021 2468.839189322917C 2044.0566779296876 2469.0765893229163 2044.2612112630209 2469.2785893229166 2044.5188112630208 2469.445255989583C 2044.776411263021 2469.606855989583 2045.061744596354 2469.7432559895833 2045.3748779296873 2469.854389322917C 2045.6880112630208 2469.9654559895835 2046.0036779296875 2470.05892265625 2046.3218779296874 2470.1346559895833C 2046.8067668185765 2470.255878211806 2047.2916557074652 2470.377100434028 2047.7765445963544 2470.49832265625C 2048.362544596354 2470.6346559895833 2048.9252112630206 2470.8189893229164 2049.4658779296874 2471.05132265625C 2050.011211263021 2471.283655989583 2050.4985445963543 2471.5765893229163 2050.9278779296874 2471.9301226562498C 2051.3625445963544 2472.2836559895836 2051.7058779296876 2472.710389322917 2051.9585445963544 2473.2103893229164C 2052.2105445963543 2473.7103893229164 2052.337211263021 2474.296255989583 2052.337211263021 2474.9679893229168C 2052.337211263021 2475.8770559895834 2052.104544596354 2476.6775893229164 2051.639877929688 2477.3695226562504C 2051.175211263021 2478.056389322917 2050.503877929688 2478.5942559895834 2049.625211263021 2478.98312265625C 2048.7512112630207 2479.366989322917 2047.6932112630207 2479.55892265625 2046.4506112630208 2479.55892265625C 2045.2435445963542 2479.55892265625 2044.1956112630207 2479.3720559895833 2043.3066779296873 2478.99832265625C 2042.4228779296877 2478.6245893229166 2041.7309445963542 2478.07912265625 2041.2309445963542 2477.3619226562496C 2040.7360112630208 2476.644789322917 2040.4683445963542 2475.771055989583 2040.4278779296874 2474.74072265625C 2041.349611263021 2474.74072265625 2042.271344596354 2474.74072265625 2043.1930779296874 2474.74072265625C 2043.2334779296875 2475.28112265625 2043.400144596354 2475.730589322917 2043.6930779296877 2476.0891893229164C 2043.9860112630208 2476.447789322917 2044.3672779296874 2476.7154559895835 2044.8370112630207 2476.8922559895827C 2045.3117445963542 2477.0689893229164 2045.8420779296875 2477.157389322917 2046.4278779296874 2477.157389322917C 2047.039211263021 2477.157389322917 2047.5745445963541 2477.0664559895836 2048.0338779296876 2476.8846559895833C 2048.4985445963543 2476.6977893229164 2048.8625445963544 2476.440189322917 2049.125211263021 2476.1119226562496C 2049.3872112630206 2475.7785893229166 2049.5212112630206 2475.38972265625 2049.526544596354 2474.9452559895826C 2049.5212112630206 2474.541255989583 2049.4025445963543 2474.20792265625 2049.1705445963544 2473.945255989583C 2048.9378779296876 2473.6775893229164 2048.6125445963544 2473.4553893229167 2048.193211263021 2473.2785893229166C 2047.779211263021 2473.0967893229163 2047.2938779296876 2472.935189322917 2046.7385445963541 2472.79372265625C 2046.1501445963543 2472.6422115451396 2045.5617445963542 2472.4907004340275 2044.973344596354 2472.3391893229164C 2043.695611263021 2472.01092265625 2042.6854779296873 2471.513455989583 2041.9430779296874 2470.8467893229167C 2041.2056779296877 2470.1750559895836 2040.837011263021 2469.2836559895836 2040.837011263021 2468.17252265625C 2040.837011263021 2467.2583893229166 2041.0844779296872 2466.45792265625 2041.5794112630208 2465.771055989583C 2042.079411263021 2465.0841893229167 2042.758744596354 2464.5513226562502 2043.6172779296876 2464.1725226562503C 2044.4758779296874 2463.78870265625 2045.4480779296875 2463.59678265625 2046.5338779296876 2463.59678265625C 2047.6352112630207 2463.59678265625 2048.5998779296874 2463.78870265625 2049.427877929688 2464.1725226562503C 2050.261211263021 2464.5513226562502 2050.915211263021 2465.0791226562496 2051.389877929688 2465.7558559895833C 2051.8645445963543 2466.427589322916 2052.109877929687 2467.2003226562506 2052.125211263021 2468.074055989583C 2051.2236557074652 2468.074055989583 2050.32210015191 2468.074055989583 2049.4205445963544 2468.074055989583ZM 1984.9316979296875 2531.4907226562495 C 1984.4720979296876 2531.4907226562495 1984.0781579296877 2531.329389322917 1983.7498779296877 2531.0060559895833C 1983.4215979296873 2530.68272265625 1983.2599779296875 2530.28872265625 1983.2650312630208 2529.824055989583C 1983.2599779296875 2529.369389322917 1983.4215979296873 2528.98072265625 1983.7498779296877 2528.657389322917C 1984.0781579296877 2528.3340559895832 1984.4720979296876 2528.1727226562502 1984.9316979296875 2528.1727226562502C 1985.3761379296873 2528.1727226562502 1985.7625045963541 2528.3340559895832 1986.090784596354 2528.657389322917C 1986.4241179296873 2528.98072265625 1986.5933445963542 2529.369389322917 1986.5983445963543 2529.824055989583C 1986.5933445963542 2530.1320559895835 1986.5124779296873 2530.41272265625 1986.3559379296878 2530.66472265625C 1986.2044245963543 2530.9173893229167 1986.0024045963542 2531.1193893229165 1985.7498779296875 2531.2707226562497C 1985.5024045963542 2531.4173893229163 1985.2296779296876 2531.4907226562495 1984.9316979296875 2531.4907226562495Z"></path><path fill="#1D1D1D" stroke="none" fill-opacity="1" stroke-width="1.176471" stroke-opacity="1" alignment-baseline="baseline" baseline-shift="baseline" color="rgb(51, 51, 51)" font-size-adjust="none" id="tSvg30805cdd7f" title="Path 2" d="M 1989.7218779296875 2505.3240559895835 C 1989.7218779296875 2500.152344878472 1989.7218779296875 2494.9806337673613 1989.7218779296875 2489.8089226562497C 1993.0349890407988 2489.8089226562497 1996.3481001519099 2489.8089226562497 1999.6612112630207 2489.8089226562497C 1999.6612112630207 2490.5942782118054 1999.6612112630207 2491.3796337673616 1999.6612112630207 2492.1649893229164C 1997.2849668185763 2492.1649893229164 1994.9087223741321 2492.1649893229164 1992.5324779296875 2492.1649893229164C 1992.5324779296875 2493.569011545139 1992.5324779296875 2494.9730337673614 1992.5324779296875 2496.3770559895834C 1994.6814557074654 2496.3770559895834 1996.830433485243 2496.3770559895834 1998.979411263021 2496.3770559895834C 1998.979411263021 2497.162411545139 1998.979411263021 2497.9477671006944 1998.979411263021 2498.73312265625C 1996.830433485243 2498.73312265625 1994.6814557074654 2498.73312265625 1992.5324779296875 2498.73312265625C 1992.5324779296875 2500.9301004340277 1992.5324779296875 2503.127078211806 1992.5324779296875 2505.3240559895835C 1991.595611263021 2505.3240559895835 1990.658744596354 2505.3240559895835 1989.7218779296875 2505.3240559895835ZM 2003.2885445963543 2505.3240559895835 C 2003.2885445963543 2500.152344878472 2003.2885445963543 2494.9806337673613 2003.2885445963543 2489.8089226562497C 2004.2254112630208 2489.8089226562497 2005.1622779296874 2489.8089226562497 2006.099144596354 2489.8089226562497C 2006.099144596354 2494.195278211805 2006.099144596354 2498.5816337673614 2006.099144596354 2502.9679893229168C 2008.3769223741317 2502.9679893229168 2010.6547001519098 2502.9679893229168 2012.9324779296874 2502.9679893229168C 2012.9324779296874 2503.7533448784716 2012.9324779296874 2504.5387004340278 2012.9324779296874 2505.3240559895835C 2009.7178334852429 2505.3240559895835 2006.5031890407986 2505.3240559895835 2003.2885445963543 2505.3240559895835ZM 2029.698011263021 2497.5664559895836 C 2029.698011263021 2499.2381893229167 2029.3848779296875 2500.669989322917 2028.7586112630208 2501.86192265625C 2028.1373445963543 2503.0487893229174 2027.2888779296877 2503.95792265625 2026.2131445963541 2504.589189322917C 2025.1424112630207 2505.22052265625 2023.927811263021 2505.5361893229165 2022.5692112630209 2505.5361893229165C 2021.2106112630206 2505.5361893229165 2019.9934112630206 2505.22052265625 2018.9176779296877 2504.589189322917C 2017.8469445963542 2503.9528559895834 2016.9984779296874 2503.0412559895835 2016.372211263021 2501.854389322917C 2015.7510112630212 2500.6624559895836 2015.4404112630207 2499.23312265625 2015.4404112630207 2497.5664559895836C 2015.4404112630207 2495.894789322917 2015.7510112630212 2494.4654559895835 2016.372211263021 2493.2785893229166C 2016.9984779296874 2492.086655989583 2017.8469445963542 2491.175055989583 2018.9176779296877 2490.54372265625C 2019.9934112630206 2489.9124559895836 2021.2106112630206 2489.5967893229167 2022.5692112630209 2489.5967893229167C 2023.927811263021 2489.5967893229167 2025.1424112630207 2489.9124559895836 2026.2131445963541 2490.54372265625C 2027.2888779296877 2491.175055989583 2028.1373445963543 2492.086655989583 2028.7586112630208 2493.2785893229166C 2029.3848779296875 2494.4654559895835 2029.698011263021 2495.894789322917 2029.698011263021 2497.5664559895836ZM 2026.872211263021 2497.5664559895836 C 2026.872211263021 2496.3897226562503 2026.6878779296871 2495.3972559895833 2026.3192112630209 2494.589189322917C 2025.955544596354 2493.7760559895833 2025.4504779296874 2493.1624559895836 2024.804011263021 2492.74832265625C 2024.157611263021 2492.32912265625 2023.4126112630206 2492.11952265625 2022.5692112630209 2492.11952265625C 2021.7257445963544 2492.11952265625 2020.9808112630208 2492.32912265625 2020.3343445963542 2492.74832265625C 2019.6878779296874 2493.1624559895836 2019.1802779296872 2493.7760559895833 2018.811611263021 2494.589189322917C 2018.448011263021 2495.3972559895833 2018.266144596354 2496.3897226562503 2018.266144596354 2497.5664559895836C 2018.266144596354 2498.7432559895833 2018.448011263021 2499.7381893229167 2018.811611263021 2500.55132265625C 2019.1802779296872 2501.3593893229163 2019.6878779296874 2501.9730559895834 2020.3343445963542 2502.3922559895836C 2020.9808112630208 2502.8063893229164 2021.7257445963544 2503.0134559895832 2022.5692112630209 2503.0134559895832C 2023.4126112630206 2503.0134559895832 2024.157611263021 2502.8063893229164 2024.804011263021 2502.3922559895836C 2025.4504779296874 2501.9730559895834 2025.955544596354 2501.3593893229163 2026.3192112630209 2500.55132265625C 2026.6878779296871 2499.7381893229167 2026.872211263021 2498.7432559895833 2026.872211263021 2497.5664559895836ZM 2036.2911445963541 2505.3240559895835 C 2034.8315668185764 2500.152344878472 2033.3719890407988 2494.9806337673613 2031.9124112630209 2489.8089226562497C 2032.9199668185763 2489.8089226562497 2033.927522374132 2489.8089226562497 2034.9350779296876 2489.8089226562497C 2035.8669001519097 2493.6094115451388 2036.7987223741318 2497.409900434028 2037.730544596354 2501.2103893229164C 2037.7785223741319 2501.2103893229164 2037.8265001519096 2501.2103893229164 2037.8744779296874 2501.2103893229164C 2038.869433485243 2497.409900434028 2039.8643890407989 2493.6094115451388 2040.8593445963538 2489.8089226562497C 2041.7760112630208 2489.8089226562497 2042.6926779296873 2489.8089226562497 2043.6093445963543 2489.8089226562497C 2044.6068557074655 2493.6119448784725 2045.6043668185762 2497.4149671006944 2046.6018779296874 2501.2179893229168C 2046.6472112630206 2501.2179893229168 2046.692544596354 2501.2179893229168 2046.7378779296873 2501.2179893229168C 2047.6698779296878 2497.4149671006944 2048.6018779296874 2493.6119448784725 2049.533877929687 2489.8089226562497C 2050.541433485243 2489.8089226562497 2051.5489890407985 2489.8089226562497 2052.556544596354 2489.8089226562497C 2051.0967668185763 2494.9806337673613 2049.6369890407987 2500.152344878472 2048.1772112630206 2505.3240559895835C 2047.2530779296874 2505.3240559895835 2046.3289445963542 2505.3240559895835 2045.404811263021 2505.3240559895835C 2044.3694557074652 2501.695278211805 2043.3341001519098 2498.0665004340276 2042.2987445963543 2494.43772265625C 2042.2583445963542 2494.43772265625 2042.2179445963543 2494.43772265625 2042.1775445963542 2494.43772265625C 2041.1396557074652 2498.0665004340276 2040.1017668185764 2501.695278211805 2039.0638779296876 2505.3240559895835C 2038.139633485243 2505.3240559895835 2037.2153890407985 2505.3240559895835 2036.2911445963541 2505.3240559895835ZM 1989.9533445963543 2518.164989322916 C 1989.9533445963543 2517.379633767361 1989.9533445963543 2516.594278211805 1989.9533445963543 2515.80892265625C 1994.0796112630208 2515.80892265625 1998.2058779296876 2515.80892265625 2002.332144596354 2515.80892265625C 2002.332144596354 2516.594278211805 2002.332144596354 2517.379633767361 2002.332144596354 2518.164989322916C 2000.7336557074655 2518.164989322916 1999.1351668185762 2518.164989322916 1997.5366779296876 2518.164989322916C 1997.5366779296876 2522.5513448784723 1997.5366779296876 2526.9377004340276 1997.5366779296876 2531.324055989583C 1996.6073890407984 2531.324055989583 1995.6781001519096 2531.324055989583 1994.7488112630208 2531.324055989583C 1994.7488112630208 2526.9377004340276 1994.7488112630208 2522.5513448784723 1994.7488112630208 2518.164989322916C 1993.1503223741322 2518.164989322916 1991.551833485243 2518.164989322916 1989.9533445963543 2518.164989322916ZM 2006.5318779296874 2531.324055989583 C 2006.5318779296874 2526.152344878473 2006.5318779296874 2520.980633767361 2006.5318779296874 2515.80892265625C 2009.8955001519098 2515.80892265625 2013.2591223741322 2515.80892265625 2016.622744596354 2515.80892265625C 2016.622744596354 2516.594278211805 2016.622744596354 2517.379633767361 2016.622744596354 2518.164989322916C 2014.1959890407986 2518.164989322916 2011.769233485243 2518.164989322916 2009.3424779296877 2518.164989322916C 2009.3424779296877 2519.569011545139 2009.3424779296877 2520.973033767361 2009.3424779296877 2522.377055989583C 2011.5949890407987 2522.377055989583 2013.8475001519096 2522.377055989583 2016.1000112630209 2522.377055989583C 2016.1000112630209 2523.162500434028 2016.1000112630209 2523.9479448784723 2016.1000112630209 2524.733389322917C 2013.8475001519096 2524.733389322917 2011.5949890407987 2524.733389322917 2009.3424779296877 2524.733389322917C 2009.3424779296877 2526.144944878472 2009.3424779296877 2527.5565004340283 2009.3424779296877 2528.9680559895833C 2011.789433485243 2528.9680559895833 2014.2363890407985 2528.9680559895833 2016.6833445963543 2528.9680559895833C 2016.6833445963543 2529.7533893229165 2016.6833445963543 2530.53872265625 2016.6833445963543 2531.324055989583C 2013.2995223741318 2531.324055989583 2009.9157001519097 2531.324055989583 2006.5318779296874 2531.324055989583ZM 2034.5838112630208 2521.04372265625 C 2033.639366818576 2521.04372265625 2032.694922374132 2521.04372265625 2031.7504779296873 2521.04372265625C 2031.6696779296874 2520.57912265625 2031.5206779296875 2520.16752265625 2031.3035445963542 2519.8089226562497C 2031.0863445963544 2519.445255989583 2030.8161445963542 2519.137189322917 2030.4928779296874 2518.8846559895833C 2030.1696779296874 2518.63212265625 2029.8010112630207 2518.4427226562498 2029.3868779296877 2518.3164559895836C 2028.9777445963541 2518.185189322917 2028.5358112630206 2518.1195226562504 2028.0610779296876 2518.1195226562504C 2027.2176779296876 2518.1195226562504 2026.470211263021 2518.3316559895834 2025.8186779296873 2518.7558559895833C 2025.1671445963543 2519.175055989583 2024.6570779296874 2519.7912559895835 2024.2883445963544 2520.604389322917C 2023.9196779296874 2521.4124559895836 2023.735344596354 2522.399789322917 2023.735344596354 2523.566455989583C 2023.735344596354 2524.7533893229165 2023.9196779296874 2525.7533893229165 2024.2883445963544 2526.56672265625C 2024.6620779296877 2527.37472265625 2025.172211263021 2527.9853893229165 2025.8186779296873 2528.400055989583C 2026.470211263021 2528.80872265625 2027.215144596354 2529.0133893229167 2028.0535445963542 2529.0133893229167C 2028.518144596354 2529.0133893229167 2028.9524779296873 2528.9527226562504 2029.356544596354 2528.831389322917C 2029.765611263021 2528.705389322917 2030.1318112630208 2528.52072265625 2030.4550112630209 2528.2787226562496C 2030.7833445963538 2528.036055989584 2031.0585445963543 2527.7380559895837 2031.2808112630205 2527.3847226562502C 2031.5080779296877 2527.0313893229168 2031.664611263021 2526.6273893229163 2031.7504779296873 2526.1727226562502C 2032.694922374132 2526.1776115451385 2033.639366818576 2526.1825004340276 2034.5838112630208 2526.1873893229167C 2034.4777445963541 2526.925389322917 2034.247944596354 2527.6167226562497 2033.894411263021 2528.2633893229167C 2033.545944596354 2528.9100559895837 2033.0888779296877 2529.4807226562507 2032.5232112630206 2529.9753893229167C 2031.9575445963542 2530.4653893229165 2031.295944596354 2530.8493893229165 2030.5383445963544 2531.1273893229163C 2029.7808112630207 2531.400055989584 2028.9398779296876 2531.5360559895835 2028.0156112630207 2531.5360559895835C 2026.6520112630208 2531.5360559895835 2025.4348112630207 2531.2207226562496 2024.364144596354 2530.5893893229163C 2023.293411263021 2529.958055989583 2022.4500112630208 2529.0460559895832 2021.8338112630208 2527.8540559895832C 2021.2176779296874 2526.66272265625 2020.9095445963542 2525.233389322917 2020.9095445963542 2523.566455989583C 2020.9095445963542 2521.8947893229165 2021.2202112630207 2520.4654559895835 2021.8414112630207 2519.2785893229166C 2022.4626112630208 2518.086655989583 2023.3085445963538 2517.1750559895836 2024.3792779296875 2516.54372265625C 2025.4500112630208 2515.912455989583 2026.6620779296875 2515.5967893229163 2028.0156112630207 2515.5967893229163C 2028.8792779296875 2515.5967893229163 2029.6822779296874 2515.717989322917 2030.4247445963542 2515.960389322917C 2031.1671445963543 2516.2028559895834 2031.8287445963542 2516.55892265625 2032.409544596354 2517.0285893229166C 2032.9904112630206 2517.4932559895833 2033.4676779296876 2518.0639226562503 2033.841411263021 2518.74072265625C 2034.220211263021 2519.4124559895836 2034.4676779296876 2520.1801226562498 2034.5838112630208 2521.04372265625ZM 2038.9710112630207 2531.324055989583 C 2038.9710112630207 2526.152344878473 2038.9710112630207 2520.980633767361 2038.9710112630207 2515.80892265625C 2039.9078779296876 2515.80892265625 2040.844744596354 2515.80892265625 2041.781611263021 2515.80892265625C 2041.781611263021 2517.998300434028 2041.781611263021 2520.187678211805 2041.781611263021 2522.377055989583C 2044.178144596354 2522.377055989583 2046.5746779296876 2522.377055989583 2048.9712112630205 2522.377055989583C 2048.9712112630205 2520.187678211805 2048.9712112630205 2517.998300434028 2048.9712112630205 2515.80892265625C 2049.910544596354 2515.80892265625 2050.8498779296874 2515.80892265625 2051.7892112630207 2515.80892265625C 2051.7892112630207 2520.980633767361 2051.7892112630207 2526.152344878473 2051.7892112630207 2531.324055989583C 2050.8498779296874 2531.324055989583 2049.910544596354 2531.324055989583 2048.9712112630205 2531.324055989583C 2048.9712112630205 2529.127167100695 2048.9712112630205 2526.9302782118057 2048.9712112630205 2524.733389322917C 2046.5746779296876 2524.733389322917 2044.178144596354 2524.733389322917 2041.781611263021 2524.733389322917C 2041.781611263021 2526.9302782118057 2041.781611263021 2529.127167100695 2041.781611263021 2531.324055989583C 2040.844744596354 2531.324055989583 2039.9078779296876 2531.324055989583 2038.9710112630207 2531.324055989583Z"></path><path fill="none" stroke="#1D1D1D" fill-opacity="1" stroke-width="2" stroke-opacity="1" alignment-baseline="baseline" baseline-shift="baseline" color="rgb(51, 51, 51)" font-size-adjust="none" x="1" y="1" width="120" height="120" id="tSvg10a61db2096" title="Rectangle 1" d="M 1980.4998779296875 2457.99072265625 C 2007.166544596354 2457.99072265625 2033.833211263021 2457.99072265625 2060.4998779296875 2457.99072265625C 2060.4998779296875 2484.657389322917 2060.4998779296875 2511.324055989583 2060.4998779296875 2537.99072265625C 2033.833211263021 2537.99072265625 2007.166544596354 2537.99072265625 1980.4998779296875 2537.99072265625C 1980.4998779296875 2511.324055989583 1980.4998779296875 2484.657389322917 1980.4998779296875 2457.99072265625Z"></path><defs></defs></svg> 