<svg width="120" height="170" viewBox="0 0 120 170" fill="none" xmlns="http://www.w3.org/2000/svg">
<path d="M60 0.5C76.5398 0.5 91.4969 2.177 102.305 4.87891C107.712 6.23082 112.053 7.83234 115.03 9.5918C118.041 11.3711 119.5 13.2148 119.5 15C119.5 16.7852 118.041 18.6289 115.03 20.4082C112.053 22.1677 107.712 23.7692 102.305 25.1211C91.4969 27.823 76.5398 29.5 60 29.5C43.4602 29.5 28.5031 27.823 17.6953 25.1211C12.2876 23.7692 7.94653 22.1677 4.96973 20.4082C1.95945 18.6289 0.5 16.7852 0.5 15C0.5 13.2148 1.95945 11.3711 4.96973 9.5918C7.94653 7.83234 12.2876 6.23082 17.6953 4.87891C28.5031 2.177 43.4602 0.5 60 0.5Z" stroke="#1E1E1E"/>
<path d="M60 20.5C76.5398 20.5 91.4969 22.177 102.305 24.8789C107.712 26.2308 112.053 27.8323 115.03 29.5918C118.041 31.3711 119.5 33.2148 119.5 35C119.5 36.7852 118.041 38.6289 115.03 40.4082C112.053 42.1677 107.712 43.7692 102.305 45.1211C91.4969 47.823 76.5398 49.5 60 49.5C43.4602 49.5 28.5031 47.823 17.6953 45.1211C12.2876 43.7692 7.94653 42.1677 4.96973 40.4082C1.95945 38.6289 0.5 36.7852 0.5 35C0.5 33.2148 1.95945 31.3711 4.96973 29.5918C7.94653 27.8323 12.2876 26.2308 17.6953 24.8789C28.5031 22.177 43.4602 20.5 60 20.5Z" stroke="#1E1E1E"/>
<path d="M60 120.5C76.5398 120.5 91.4969 122.177 102.305 124.879C107.712 126.231 112.053 127.832 115.03 129.592C118.041 131.371 119.5 133.215 119.5 135C119.5 136.785 118.041 138.629 115.03 140.408C112.053 142.168 107.712 143.769 102.305 145.121C91.4969 147.823 76.5398 149.5 60 149.5C43.4602 149.5 28.5031 147.823 17.6953 145.121C12.2876 143.769 7.94653 142.168 4.96973 140.408C1.95945 138.629 0.5 136.785 0.5 135C0.5 133.215 1.95945 131.371 4.96973 129.592C7.94653 127.832 12.2876 126.231 17.6953 124.879C28.5031 122.177 43.4602 120.5 60 120.5Z" stroke="#1E1E1E"/>
<path d="M60 100.5C76.5398 100.5 91.4969 102.177 102.305 104.879C107.712 106.231 112.053 107.832 115.03 109.592C118.041 111.371 119.5 113.215 119.5 115C119.5 116.785 118.041 118.629 115.03 120.408C112.053 122.168 107.712 123.769 102.305 125.121C91.4969 127.823 76.5398 129.5 60 129.5C43.4602 129.5 28.5031 127.823 17.6953 125.121C12.2876 123.769 7.94653 122.168 4.96973 120.408C1.95945 118.629 0.5 116.785 0.5 115C0.5 113.215 1.95945 111.371 4.96973 109.592C7.94653 107.832 12.2876 106.231 17.6953 104.879C28.5031 102.177 43.4602 100.5 60 100.5Z" stroke="#1E1E1E"/>
<path d="M60 40.5C76.5398 40.5 91.4969 42.177 102.305 44.8789C107.712 46.2308 112.053 47.8323 115.03 49.5918C118.041 51.3711 119.5 53.2148 119.5 55C119.5 56.7852 118.041 58.6289 115.03 60.4082C112.053 62.1677 107.712 63.7692 102.305 65.1211C91.4969 67.823 76.5398 69.5 60 69.5C43.4602 69.5 28.5031 67.823 17.6953 65.1211C12.2876 63.7692 7.94653 62.1677 4.96973 60.4082C1.95945 58.6289 0.5 56.7852 0.5 55C0.5 53.2148 1.95945 51.3711 4.96973 49.5918C7.94653 47.8323 12.2876 46.2308 17.6953 44.8789C28.5031 42.177 43.4602 40.5 60 40.5Z" stroke="#1E1E1E"/>
<path d="M60 140.5C76.5398 140.5 91.4969 142.177 102.305 144.879C107.712 146.231 112.053 147.832 115.03 149.592C118.041 151.371 119.5 153.215 119.5 155C119.5 156.785 118.041 158.629 115.03 160.408C112.053 162.168 107.712 163.769 102.305 165.121C91.4969 167.823 76.5398 169.5 60 169.5C43.4602 169.5 28.5031 167.823 17.6953 165.121C12.2876 163.769 7.94653 162.168 4.96973 160.408C1.95945 158.629 0.5 156.785 0.5 155C0.5 153.215 1.95945 151.371 4.96973 149.592C7.94653 147.832 12.2876 146.231 17.6953 144.879C28.5031 142.177 43.4602 140.5 60 140.5Z" stroke="#1E1E1E"/>
<path d="M60 60.5C76.5398 60.5 91.4969 62.177 102.305 64.8789C107.712 66.2308 112.053 67.8323 115.03 69.5918C118.041 71.3711 119.5 73.2148 119.5 75C119.5 76.7852 118.041 78.6289 115.03 80.4082C112.053 82.1677 107.712 83.7692 102.305 85.1211C91.4969 87.823 76.5398 89.5 60 89.5C43.4602 89.5 28.5031 87.823 17.6953 85.1211C12.2876 83.7692 7.94653 82.1677 4.96973 80.4082C1.95945 78.6289 0.5 76.7852 0.5 75C0.5 73.2148 1.95945 71.3711 4.96973 69.5918C7.94653 67.8323 12.2876 66.2308 17.6953 64.8789C28.5031 62.177 43.4602 60.5 60 60.5Z" stroke="#1E1E1E"/>
<path d="M60 80.5C76.5398 80.5 91.4969 82.177 102.305 84.8789C107.712 86.2308 112.053 87.8323 115.03 89.5918C118.041 91.3711 119.5 93.2148 119.5 95C119.5 96.7852 118.041 98.6289 115.03 100.408C112.053 102.168 107.712 103.769 102.305 105.121C91.4969 107.823 76.5398 109.5 60 109.5C43.4602 109.5 28.5031 107.823 17.6953 105.121C12.2876 103.769 7.94653 102.168 4.96973 100.408C1.95945 98.6289 0.5 96.7852 0.5 95C0.5 93.2148 1.95945 91.3711 4.96973 89.5918C7.94653 87.8323 12.2876 86.2308 17.6953 84.8789C28.5031 82.177 43.4602 80.5 60 80.5Z" stroke="#1E1E1E"/>
</svg>
