<?xml version="1.0" encoding="UTF-8"?> <svg xmlns="http://www.w3.org/2000/svg" width="120" height="31" viewBox="0 0 120 31" fill="none"> <path d="M119.5 15.002C119.5 16.7871 118.041 18.6309 115.03 20.4102C112.054 22.1697 107.713 23.7715 102.305 25.1235C91.4973 27.8254 76.54 29.502 60 29.502C43.46 29.502 28.5027 27.8254 17.6949 25.1235C12.2871 23.7715 7.94632 22.1697 4.96951 20.4102C1.95923 18.6309 0.5 16.7871 0.5 15.002C0.5 13.2168 1.95923 11.373 4.96951 9.59371C7.94632 7.83422 12.2871 6.23236 17.6949 4.88042C28.5027 2.17847 43.46 0.501953 60 0.501953C76.54 0.501953 91.4973 2.17847 102.305 4.88042C107.713 6.23236 112.054 7.83422 115.03 9.59371C118.041 11.373 119.5 13.2168 119.5 15.002Z" stroke="#1E1E1E"></path> </svg> 